<?xml version="1.0" standalone="no"?>
<!DOCTYPE svg PUBLIC "-//W3C//DTD SVG 20010904//EN"
 "http://www.w3.org/TR/2001/REC-SVG-20010904/DTD/svg10.dtd">
<svg version="1.0" xmlns="http://www.w3.org/2000/svg"
 width="1024.000000pt" height="1024.000000pt" viewBox="0 0 1024.000000 1024.000000"
 preserveAspectRatio="xMidYMid meet">
<metadata>
Created by potrace 1.14, written by Peter Selinger 2001-2017
</metadata>
<g transform="translate(0.000000,1024.000000) scale(0.100000,-0.100000)"
fill="#000000" stroke="none">
<path d="M5070 9072 c-534 -250 -1020 -536 -1480 -871 -80 -58 -152 -111 -160
-118 -8 -6 -51 -40 -95 -74 -85 -67 -307 -249 -315 -260 -3 -3 -27 -25 -55
-49 -137 -116 -441 -411 -605 -586 -440 -468 -866 -1043 -1202 -1624 -148
-255 -340 -640 -450 -900 -22 -52 -48 -114 -59 -137 -10 -24 -19 -46 -19 -49
0 -3 -6 -20 -14 -37 -57 -124 -268 -746 -291 -857 -2 -9 -17 -67 -34 -130 -30
-114 -89 -354 -97 -397 -2 -13 -6 -33 -9 -45 -12 -57 -74 -397 -79 -433 -3
-22 -8 -50 -10 -62 -3 -12 -7 -46 -10 -75 -4 -29 -8 -62 -10 -73 -2 -11 -7
-49 -11 -85 -3 -36 -8 -76 -10 -90 -2 -14 -6 -54 -10 -90 -4 -36 -8 -76 -10
-90 -2 -14 -7 -72 -10 -130 -4 -58 -8 -125 -10 -150 -2 -25 -7 -150 -10 -277
-5 -190 -4 -233 7 -234 7 0 845 -1 1862 -2 1225 -1 1850 1 1851 8 2 6 6 101 9
212 3 110 8 207 11 215 2 7 6 42 9 78 4 61 8 92 21 180 3 19 8 53 11 75 3 22
9 63 14 90 5 28 12 61 14 75 3 20 44 207 61 280 86 376 299 905 515 1280 103
177 342 537 380 570 3 3 21 25 40 50 51 67 196 236 264 308 l59 62 21 -22 c11
-13 38 -43 60 -68 97 -108 171 -200 273 -335 71 -95 226 -326 274 -408 19 -33
42 -73 53 -90 60 -101 256 -485 256 -503 0 -2 11 -27 24 -56 61 -134 136 -338
185 -498 18 -58 36 -116 41 -130 9 -24 75 -288 84 -333 29 -144 39 -200 56
-307 10 -69 21 -147 25 -175 3 -27 7 -66 10 -85 8 -63 21 -298 24 -440 l1 -35
1842 2 c1014 1 1851 2 1861 2 18 1 18 12 12 224 -6 229 -9 298 -20 427 -3 41
-8 95 -10 120 -4 58 -35 337 -40 370 -2 14 -7 45 -10 70 -7 50 -62 381 -70
420 -3 14 -9 48 -14 75 -5 28 -19 93 -31 145 -12 52 -23 102 -25 110 -4 17
-25 108 -30 130 -46 189 -139 504 -218 736 -189 554 -457 1129 -764 1644 -217
363 -524 797 -772 1093 -53 63 -147 173 -156 183 -5 6 -44 49 -85 95 -146 163
-413 433 -579 585 -35 33 -76 70 -91 84 -15 14 -64 57 -110 95 -45 39 -92 78
-104 89 -20 18 -100 83 -121 99 -5 4 -23 19 -40 33 -52 43 -328 250 -406 304
-186 129 -339 230 -348 230 -5 0 -11 4 -13 8 -3 7 -245 156 -308 190 -13 7
-38 21 -55 31 -16 10 -50 30 -75 43 -25 14 -63 35 -84 47 -55 31 -377 192
-459 230 -77 35 -79 36 -127 13z"/>
</g>
</svg>
