<?xml version="1.0" encoding="UTF-8" standalone="no"?>
<!DOCTYPE svg PUBLIC "-//W3C//DTD SVG 1.1//EN" "http://www.w3.org/Graphics/SVG/1.1/DTD/svg11.dtd">
<svg width="100%" height="100%" viewBox="0 0 16 16" version="1.1" xmlns="http://www.w3.org/2000/svg" xmlns:xlink="http://www.w3.org/1999/xlink" xml:space="preserve" xmlns:serif="http://www.serif.com/" style="fill-rule:evenodd;clip-rule:evenodd;stroke-linejoin:round;stroke-miterlimit:2;">
    <g transform="matrix(1.2121,0,0,1.2121,-0.530295,0.689349)">
        <path d="M8.517,0.683C8.297,0.474 7.949,0.482 7.739,0.702C7.53,0.922 7.539,1.27 7.758,1.48L11.977,5.481L0.988,5.481C0.684,5.481 0.438,5.728 0.438,6.031C0.438,6.335 0.684,6.581 0.988,6.581L11.96,6.581L7.758,10.583C7.538,10.793 7.53,11.141 7.739,11.361C7.847,11.474 7.992,11.531 8.138,11.531C8.274,11.531 8.41,11.481 8.517,11.38L13.315,6.809C13.523,6.601 13.638,6.325 13.638,6.031C13.638,5.737 13.523,5.461 13.306,5.244L8.517,0.683Z" style="fill-rule:nonzero;"/>
    </g>
</svg>
