<?xml version="1.0" encoding="UTF-8" standalone="no"?>
<!DOCTYPE svg PUBLIC "-//W3C//DTD SVG 1.1//EN" "http://www.w3.org/Graphics/SVG/1.1/DTD/svg11.dtd">
<svg width="100%" height="100%" viewBox="0 0 20 20" version="1.1" xmlns="http://www.w3.org/2000/svg" xmlns:xlink="http://www.w3.org/1999/xlink" xml:space="preserve" xmlns:serif="http://www.serif.com/" style="fill-rule:evenodd;clip-rule:evenodd;stroke-linejoin:round;stroke-miterlimit:2;">
    <path d="M10,-0C4.481,-0 -0,4.481 -0,10C-0,15.519 4.481,20 10,20C15.519,20 20,15.519 20,10C20,4.481 15.519,-0 10,-0ZM10,1.4C14.746,1.4 18.6,5.254 18.6,10C18.6,14.746 14.746,18.6 10,18.6C5.254,18.6 1.4,14.746 1.4,10C1.4,5.254 5.254,1.4 10,1.4Z" style="fill:white;"/>
    <path d="M9.3,5.7L9.3,14.3C9.3,14.686 9.614,15 10,15C10.386,15 10.7,14.686 10.7,14.3L10.7,5.7C10.7,5.314 10.386,5 10,5C9.614,5 9.3,5.314 9.3,5.7Z" style="fill:white;"/>
    <path d="M5.7,10.7L14.3,10.7C14.686,10.7 15,10.386 15,10C15,9.614 14.686,9.3 14.3,9.3L5.7,9.3C5.314,9.3 5,9.614 5,10C5,10.386 5.314,10.7 5.7,10.7Z" style="fill:white;"/>
</svg>
