<?xml version="1.0" encoding="UTF-8" standalone="no"?>
<!DOCTYPE svg PUBLIC "-//W3C//DTD SVG 1.1//EN" "http://www.w3.org/Graphics/SVG/1.1/DTD/svg11.dtd">
<svg width="100%" height="100%" viewBox="0 0 16 16" version="1.1" xmlns="http://www.w3.org/2000/svg" xmlns:xlink="http://www.w3.org/1999/xlink" xml:space="preserve" xmlns:serif="http://www.serif.com/" style="fill-rule:evenodd;clip-rule:evenodd;stroke-linejoin:round;stroke-miterlimit:2;">
    <g transform="matrix(0.03125,0,0,0.03125,0,0)">
        <path d="M410.789,149.393C440.073,170.529 468.587,197.003 494.7,227.7C510,245.7 512,248.9 512,256C512,263.1 510,266.3 494.7,284.3C438.6,350.2 371.6,396.6 309.5,412.5C290.8,417.3 275.4,419.2 256,419.2C237,419.2 221.7,417.4 203.7,412.9C189.991,409.451 176.03,404.51 161.988,398.194L188.862,371.32C203.154,376.852 217.387,380.792 231.5,383.1C243.1,385 271.3,384.8 283,382.7C326.7,374.7 370.1,352.4 414.5,315.1C431.2,301.1 472,259.1 472,256C472,254.3 458.1,239 441.1,221.9C422.722,203.558 404.156,187.786 385.525,174.656L410.789,149.393ZM101.211,362.607C71.927,341.471 43.413,314.997 17.3,284.3C2,266.3 -0,263.1 -0,256C-0,248.9 2,245.7 17.3,227.7C85.7,147.3 166.5,98.7 241,93C261.6,91.5 286.8,93.7 308.3,99.1C322.009,102.549 335.97,107.49 350.012,113.806L323.144,140.674C309.887,135.572 296.659,131.84 283.5,129.5C274.6,127.9 249.2,126.8 241.5,127.6C194.4,132.8 146.2,156 97.5,196.9C80.8,210.9 40,252.9 40,256C40,258.5 67.5,287.8 84.8,303.6C98.636,316.271 112.552,327.521 126.499,337.319L101.211,362.607Z" style="fill-rule:nonzero;"/>
    </g>
    <g transform="matrix(0.03125,0,0,0.03125,0,0)">
        <path d="M347.77,212.412C365.697,250.121 359.04,296.639 327.8,327.8C296.639,359.04 250.121,365.697 212.412,347.77L239.536,320.645C255.063,324.999 269.988,323.251 286,315.4C308.1,304.4 323,280.6 323,256C323,250.384 322.223,244.809 320.762,239.42L347.77,212.412ZM164.238,299.581C149.231,268.024 151.174,229.939 171.4,199.6C187.5,175.4 215.1,158.4 243.2,155.1C253.6,153.9 257.4,153.9 267.5,155C278.755,156.327 289.576,159.442 299.605,164.213L272.524,191.295C271.387,190.949 270.359,190.676 269.5,190.5C240.2,184.4 209.9,199.2 196.6,226C191.5,236.5 189,246.1 189,256C189,261.616 189.777,267.191 191.238,272.58L164.238,299.581Z" style="fill-rule:nonzero;"/>
    </g>
    <g transform="matrix(0.0385654,-0.00572422,-0.00572422,0.0385654,0.255546,0.187599)">
        <path d="M384.098,66.322L64.787,385.632C60.024,390.396 61.372,399.479 67.796,405.904C74.221,412.328 83.304,413.676 88.068,408.913L407.379,89.602C412.142,84.838 410.794,75.755 404.37,69.33C397.945,62.906 388.862,61.558 384.098,66.322Z"/>
    </g>
</svg>
