<?xml version="1.0" encoding="UTF-8" standalone="no"?>
<!DOCTYPE svg PUBLIC "-//W3C//DTD SVG 1.1//EN" "http://www.w3.org/Graphics/SVG/1.1/DTD/svg11.dtd">
<svg width="100%" height="100%" viewBox="0 0 16 16" version="1.1" xmlns="http://www.w3.org/2000/svg" xmlns:xlink="http://www.w3.org/1999/xlink" xml:space="preserve" xmlns:serif="http://www.serif.com/" style="fill-rule:evenodd;clip-rule:evenodd;stroke-linejoin:round;stroke-miterlimit:2;">
    <g transform="matrix(0.003125,0,0,-0.003125,0,16.0041)">
        <path d="M2410,4190C1665,4133 857,3647 173,2843C20,2663 0,2631 0,2560C0,2489 20,2457 173,2277C737,1614 1413,1148 2037,991C2217,946 2370,928 2560,928C2754,928 2908,947 3095,995C3716,1154 4386,1618 4947,2277C5100,2457 5120,2489 5120,2560C5120,2631 5100,2663 4947,2843C4383,3506 3707,3972 3083,4129C2868,4183 2616,4205 2410,4190ZM2835,3825C3358,3732 3892,3419 4411,2901C4581,2730 4720,2577 4720,2560C4720,2529 4312,2109 4145,1969C3701,1596 3267,1373 2830,1293C2713,1272 2431,1270 2315,1289C1832,1368 1335,1638 848,2084C675,2242 400,2535 400,2560C400,2591 808,3011 975,3151C1462,3560 1944,3792 2415,3844C2492,3852 2746,3841 2835,3825Z" style="fill-rule:nonzero;"/>
    </g>
    <g transform="matrix(0.003125,0,0,-0.003125,0,16.0041)">
        <path d="M2432,3569C2151,3536 1875,3366 1714,3124C1446,2722 1499,2184 1842,1842C2238,1445 2882,1445 3278,1842C3675,2238 3675,2882 3278,3278C3115,3442 2904,3543 2675,3570C2574,3581 2536,3581 2432,3569ZM2695,3215C2734,3207 2808,3179 2860,3154C3081,3044 3230,2806 3230,2560C3230,2314 3081,2076 2860,1966C2654,1865 2466,1865 2260,1966C2039,2076 1890,2314 1890,2560C1890,2659 1915,2755 1966,2860C2099,3128 2402,3276 2695,3215Z" style="fill-rule:nonzero;"/>
    </g>
</svg>
