<?xml version="1.0" encoding="UTF-8" standalone="no"?>
<!DOCTYPE svg PUBLIC "-//W3C//DTD SVG 1.1//EN" "http://www.w3.org/Graphics/SVG/1.1/DTD/svg11.dtd">
<svg width="100%" height="100%" viewBox="0 0 16 16" version="1.1" xmlns="http://www.w3.org/2000/svg" xmlns:xlink="http://www.w3.org/1999/xlink" xml:space="preserve" xmlns:serif="http://www.serif.com/" style="fill-rule:evenodd;clip-rule:evenodd;stroke-linejoin:round;stroke-miterlimit:2;">
    <g transform="matrix(1.19048,0,0,1.19048,1.37929,1.77636e-15)">
        <path d="M10.816,1.32C10.652,1.225 10.375,1.094 10.001,0.966C8.523,0.46 6.887,0.46 5.274,1.307C3.998,1.977 2.704,1.977 1.522,1.573C1.414,1.536 1.319,1.5 1.236,1.466L1.236,0.618C1.236,0.277 0.959,0 0.618,0C0.277,0 0,0.277 0,0.618L0,12.822C0,13.163 0.277,13.44 0.618,13.44C0.959,13.44 1.236,13.163 1.236,12.822L1.236,8.97C2.684,9.437 4.277,9.416 5.848,8.592C7.125,7.922 8.419,7.922 9.601,8.326C9.892,8.426 10.097,8.522 10.194,8.579C10.606,8.818 11.123,8.521 11.123,8.045L11.123,1.854C11.123,1.634 11.006,1.431 10.816,1.32ZM9.887,7.119C8.439,6.652 6.845,6.673 5.274,7.497C3.998,8.167 2.704,8.167 1.522,7.763C1.414,7.726 1.319,7.69 1.236,7.656L1.236,2.78C2.684,3.247 4.277,3.226 5.848,2.401C7.125,1.731 8.419,1.731 9.601,2.135C9.708,2.172 9.804,2.208 9.887,2.243L9.887,7.119Z" style="fill-rule:nonzero;"/>
    </g>
</svg>
