<?xml version="1.0" encoding="UTF-8" standalone="no"?>
<!DOCTYPE svg PUBLIC "-//W3C//DTD SVG 1.1//EN" "http://www.w3.org/Graphics/SVG/1.1/DTD/svg11.dtd">
<svg width="100%" height="100%" viewBox="0 0 16 16" version="1.1" xmlns="http://www.w3.org/2000/svg" xmlns:xlink="http://www.w3.org/1999/xlink" xml:space="preserve" xmlns:serif="http://www.serif.com/" style="fill-rule:evenodd;clip-rule:evenodd;stroke-linejoin:round;stroke-miterlimit:2;">
    <g transform="matrix(0.983926,0,0,0.983926,-0.0189811,0.28285)">
        <path d="M13.729,1.554L13.729,1.554C11.966,0.612 9.655,0.868 8.152,2.13C6.642,0.869 4.328,0.616 2.571,1.554C0.998,2.39 0.019,3.989 0.019,5.723C0.019,6.221 0.102,6.714 0.247,7.14L0.246,7.135C0.702,9.091 2.616,11.421 4.569,12.969C5.891,14.016 7.233,14.7 8.153,14.7C9.07,14.7 10.411,14.016 11.73,12.973C13.682,11.428 15.593,9.108 16.039,7.184L16.038,7.189C16.199,6.709 16.281,6.218 16.281,5.723C16.281,3.989 15.303,2.389 13.729,1.554ZM14.622,6.78L14.617,6.796C14.211,8.557 12.45,10.52 10.806,11.813C10.148,12.33 9.509,12.739 8.98,12.984C8.649,13.136 8.366,13.225 8.153,13.225C7.915,13.225 7.613,13.132 7.268,12.973C6.719,12.718 6.073,12.293 5.417,11.762C3.773,10.431 2.059,8.434 1.667,6.741C1.665,6.735 1.664,6.729 1.662,6.723C1.549,6.396 1.495,6.06 1.495,5.724C1.495,4.534 2.173,3.435 3.262,2.858C3.262,2.858 3.262,2.858 3.262,2.858C3.771,2.585 4.351,2.445 4.935,2.445C5.966,2.445 6.934,2.881 7.596,3.644L8.027,4.137C8.06,4.175 8.108,4.196 8.159,4.196C8.209,4.196 8.257,4.174 8.29,4.136C8.29,4.136 8.713,3.643 8.713,3.643C9.743,2.448 11.634,2.106 13.04,2.858C13.04,2.858 13.04,2.858 13.04,2.858C14.129,3.435 14.807,4.534 14.808,5.723C14.805,6.06 14.749,6.398 14.622,6.78Z" style="fill-rule:nonzero;"/>
    </g>
</svg>
