<?xml version="1.0" encoding="UTF-8" standalone="no"?>
<!DOCTYPE svg PUBLIC "-//W3C//DTD SVG 1.1//EN" "http://www.w3.org/Graphics/SVG/1.1/DTD/svg11.dtd">
<svg width="100%" height="100%" viewBox="0 0 16 14" version="1.1" xmlns="http://www.w3.org/2000/svg" xmlns:xlink="http://www.w3.org/1999/xlink" xml:space="preserve" xmlns:serif="http://www.serif.com/" style="fill-rule:evenodd;clip-rule:evenodd;stroke-linejoin:round;stroke-miterlimit:2;">
    <path d="M13.527,0.551C11.772,-0.387 9.457,-0.102 8.003,1.207C6.541,-0.101 4.222,-0.383 2.473,0.551C0.949,1.36 0,2.908 0,4.588C0,5.07 0.08,5.548 0.221,5.96C0.968,9.189 5.757,13.439 8.003,13.439C10.243,13.439 15.029,9.189 15.762,6.014C15.92,5.547 16,5.07 16,4.588C16,2.908 15.052,1.359 13.527,0.551ZM14.673,5.706C13.979,8.711 9.455,12.306 8.003,12.306C6.386,12.306 1.98,8.54 1.311,5.651C1.191,5.303 1.134,4.946 1.134,4.589C1.134,3.329 1.85,2.164 3.003,1.553C3.54,1.265 4.151,1.117 4.768,1.117C5.855,1.117 6.877,1.578 7.575,2.383L8.008,2.878L8.434,2.383C9.52,1.122 11.516,0.76 12.999,1.553C14.152,2.164 14.869,3.329 14.869,4.589C14.866,4.945 14.808,5.302 14.673,5.706Z" style="fill:white;fill-rule:nonzero;"/>
</svg>
