<?xml version="1.0" encoding="UTF-8" standalone="no"?>
<!DOCTYPE svg PUBLIC "-//W3C//DTD SVG 1.1//EN" "http://www.w3.org/Graphics/SVG/1.1/DTD/svg11.dtd">
<svg width="100%" height="100%" viewBox="0 0 20 20" version="1.1" xmlns="http://www.w3.org/2000/svg" xmlns:xlink="http://www.w3.org/1999/xlink" xml:space="preserve" xmlns:serif="http://www.serif.com/" style="fill-rule:evenodd;clip-rule:evenodd;stroke-linejoin:round;stroke-miterlimit:2;">
    <path d="M19.463,8.699C19.462,8.699 19.462,8.698 19.461,8.698L11.302,0.539C10.954,0.191 10.492,0 10,0C9.508,0 9.046,0.191 8.698,0.539L0.543,8.693C0.54,8.696 0.537,8.699 0.535,8.702C-0.179,9.42 -0.178,10.585 0.538,11.302C0.866,11.629 1.298,11.819 1.76,11.839C1.779,11.841 1.798,11.842 1.817,11.842L2.142,11.842L2.142,17.845C2.142,19.033 3.109,20 4.297,20L7.489,20C7.813,20 8.075,19.738 8.075,19.414L8.075,14.707C8.075,14.165 8.517,13.724 9.059,13.724L10.942,13.724C11.484,13.724 11.925,14.165 11.925,14.707L11.925,19.414C11.925,19.738 12.187,20 12.511,20L15.703,20C16.891,20 17.858,19.033 17.858,17.845L17.858,11.842L18.16,11.842C18.651,11.842 19.114,11.65 19.462,11.302C20.179,10.584 20.179,9.417 19.463,8.699ZM18.633,10.473C18.507,10.6 18.338,10.67 18.16,10.67L17.272,10.67C16.949,10.67 16.686,10.932 16.686,11.256L16.686,17.845C16.686,18.387 16.245,18.828 15.703,18.828L13.097,18.828L13.097,14.707C13.097,13.519 12.13,12.552 10.942,12.552L9.059,12.552C7.87,12.552 6.903,13.519 6.903,14.707L6.903,18.828L4.297,18.828C3.755,18.828 3.314,18.387 3.314,17.845L3.314,11.256C3.314,10.932 3.052,10.67 2.728,10.67L1.856,10.67C1.847,10.669 1.838,10.669 1.828,10.668C1.654,10.665 1.49,10.596 1.367,10.473C1.106,10.212 1.106,9.788 1.367,9.527C1.367,9.527 1.367,9.526 1.368,9.526L9.527,1.368C9.653,1.241 9.821,1.172 10,1.172C10.179,1.172 10.347,1.241 10.473,1.368L18.63,9.524C18.632,9.525 18.633,9.527 18.634,9.528C18.894,9.789 18.893,10.213 18.633,10.473Z" style="fill:white;fill-rule:nonzero;"/>
</svg>
