<?xml version="1.0" encoding="UTF-8" standalone="no"?>
<!DOCTYPE svg PUBLIC "-//W3C//DTD SVG 1.1//EN" "http://www.w3.org/Graphics/SVG/1.1/DTD/svg11.dtd">
<svg width="100%" height="100%" viewBox="0 0 16 16" version="1.1" xmlns="http://www.w3.org/2000/svg" xmlns:xlink="http://www.w3.org/1999/xlink" xml:space="preserve" xmlns:serif="http://www.serif.com/" style="fill-rule:evenodd;clip-rule:evenodd;stroke-linejoin:round;stroke-miterlimit:2;">
    <g transform="matrix(1.33333,0,0,1.33333,-2.66667,-2.66667)">
        <path d="M6.545,3.94L3.852,3.94C2.829,3.94 2,4.769 2,5.791C2,5.791 2,12.148 2,12.148C2,13.171 2.829,14 3.852,14L10.209,14C11.232,14 12.061,13.171 12.061,12.148C12.061,12.148 12.061,9.455 12.061,9.455C12.061,9.087 11.762,8.788 11.394,8.788C11.026,8.788 10.727,9.087 10.727,9.455L10.727,12.148C10.727,12.435 10.495,12.667 10.209,12.667C10.209,12.667 3.852,12.667 3.852,12.667C3.565,12.667 3.333,12.435 3.333,12.148L3.333,5.791C3.333,5.505 3.565,5.273 3.852,5.273C3.852,5.273 6.545,5.273 6.545,5.273C6.913,5.273 7.212,4.974 7.212,4.606C7.212,4.238 6.913,3.94 6.545,3.94ZM13.333,2L9.454,2C9.087,2 8.788,2.299 8.788,2.667C8.788,3.035 9.087,3.333 9.454,3.333L11.724,3.333L7.529,7.528C7.268,7.789 7.268,8.211 7.529,8.471C7.789,8.731 8.211,8.731 8.471,8.471L12.667,4.276L12.667,6.545C12.667,6.913 12.965,7.212 13.333,7.212C13.701,7.212 14,6.913 14,6.545L14,2.667L13.999,2.632L13.997,2.599L13.992,2.565L13.986,2.532L13.979,2.5L13.97,2.469L13.963,2.446L13.96,2.438L13.955,2.425L13.951,2.416L13.948,2.407L13.943,2.398L13.938,2.386L13.924,2.357L13.908,2.328L13.902,2.32C13.876,2.275 13.843,2.234 13.805,2.195C13.766,2.157 13.725,2.124 13.68,2.098L13.672,2.092L13.643,2.076L13.622,2.066L13.614,2.062L13.602,2.057L13.593,2.052L13.584,2.049L13.575,2.045L13.562,2.04L13.531,2.03L13.5,2.021L13.468,2.014L13.435,2.008L13.401,2.003L13.368,2.001L13.333,2Z"/>
    </g>
</svg>
