<svg height="512pt" viewBox="0 -65 512 511" width="512pt" xmlns="http://www.w3.org/2000/svg"><path d="m366.519531 1.308594c-6.179687-2.097656-13.011719-.027344-16.988281 5.148437-.566406.734375-57.597656 73.589844-150.429688 73.589844h-119.882812c-43.679688 0-79.21875 35.539063-79.21875 79.21875 0 43.683594 35.539062 79.222656 79.21875 79.222656h2.503906v93.640625c0 27.195313 22.125 49.320313 49.320313 49.320313 27.191406 0 49.316406-22.125 49.316406-49.320313v-93.640625h18.742187c38.503907 0 75.390626 12.234375 109.636719 36.371094 26.039063 18.351563 40.667969 37.058594 40.792969 37.21875 2.941406 3.828125 7.441406 5.957031 12.089844 5.957031 1.636718 0 3.289062-.265625 4.898437-.8125 6.179688-2.097656 10.335938-7.902344 10.335938-14.429687v-287.050781c.003906-6.527344-4.15625-12.332032-10.335938-14.433594zm-336.039062 157.957031c0-26.875 21.863281-48.738281 48.738281-48.738281h104.640625v97.480468h-104.640625c-26.875 0-48.738281-21.863281-48.738281-48.742187zm119.398437 172.863281c0 10.390625-8.449218 18.839844-18.839844 18.839844-10.386718 0-18.835937-8.449219-18.835937-18.839844v-93.640625h37.675781zm196.5-66.488281c-5.582031-4.824219-11.976562-9.933594-19.15625-15.039063-34.703125-24.691406-73.441406-39.070312-112.882812-42.023437v-98.621094c39.441406-2.957031 78.179687-17.332031 112.882812-42.023437 7.175782-5.105469 13.574219-10.21875 19.15625-15.039063zm0 0"/><path d="m496.761719 144.027344h-35.070313c-8.417968 0-15.238281 6.824218-15.238281 15.238281 0 8.417969 6.820313 15.242187 15.238281 15.242187h35.070313c8.414062 0 15.238281-6.824218 15.238281-15.242187 0-8.414063-6.824219-15.238281-15.238281-15.238281zm0 0"/><path d="m429.160156 124.261719c3.902344 0 7.800782-1.488281 10.777344-4.464844l24.796875-24.796875c5.949219-5.953125 5.949219-15.601562 0-21.554688-5.953125-5.953124-15.601563-5.949218-21.554687 0l-24.796876 24.800782c-5.949218 5.949218-5.949218 15.597656 0 21.550781 2.976563 2.976563 6.878907 4.464844 10.777344 4.464844zm0 0"/><path d="m439.9375 198.738281c-5.949219-5.953125-15.601562-5.953125-21.550781 0-5.953125 5.949219-5.953125 15.597657 0 21.550781l24.796875 24.796876c2.972656 2.980468 6.875 4.464843 10.773437 4.464843 3.898438 0 7.800781-1.488281 10.777344-4.464843 5.949219-5.949219 5.949219-15.597657 0-21.550782zm0 0"/><path d="m82.242188 144.027344c-7.96875 0-15.605469 7.007812-15.238282 15.238281.371094 8.257813 6.695313 15.242187 15.238282 15.242187 7.972656 0 15.609374-7.011718 15.242187-15.242187-.371094-8.253906-6.699219-15.238281-15.242187-15.238281zm0 0"/></svg>