<?xml version="1.0" encoding="UTF-8" standalone="no"?>
<!DOCTYPE svg PUBLIC "-//W3C//DTD SVG 1.1//EN" "http://www.w3.org/Graphics/SVG/1.1/DTD/svg11.dtd">
<svg width="100%" height="100%" viewBox="0 0 61 61" version="1.1" xmlns="http://www.w3.org/2000/svg" xmlns:xlink="http://www.w3.org/1999/xlink" xml:space="preserve" xmlns:serif="http://www.serif.com/" style="fill-rule:evenodd;clip-rule:evenodd;stroke-linejoin:round;stroke-miterlimit:2;">
    <g>
        <path d="M57.124,51.893L16.92,51.893C15.263,51.893 13.92,50.55 13.92,48.893C13.92,47.236 15.263,45.893 16.92,45.893L57.123,45.893C58.78,45.893 60.123,47.236 60.123,48.893C60.123,50.55 58.781,51.893 57.124,51.893Z" style="fill-rule:nonzero;"/>
        <path d="M57.124,33.062L16.92,33.062C15.263,33.062 13.92,31.719 13.92,30.062C13.92,28.405 15.263,27.062 16.92,27.062L57.123,27.062C58.78,27.062 60.123,28.405 60.123,30.062C60.124,31.719 58.781,33.062 57.124,33.062Z" style="fill-rule:nonzero;"/>
        <path d="M57.124,14.231L16.92,14.231C15.263,14.231 13.92,12.888 13.92,11.231C13.92,9.574 15.263,8.231 16.92,8.231L57.123,8.231C58.78,8.231 60.123,9.574 60.123,11.231C60.123,12.888 58.781,14.231 57.124,14.231Z" style="fill-rule:nonzero;"/>
        <path d="M57.124,14.231L16.92,14.231C15.263,14.231 13.92,12.888 13.92,11.231C13.92,9.574 15.263,8.231 16.92,8.231L57.123,8.231C58.78,8.231 60.123,9.574 60.123,11.231C60.123,12.888 58.781,14.231 57.124,14.231Z" style="fill-rule:nonzero;"/>
        <g transform="matrix(0.105295,0,0,0.105295,-0.00958894,3.86002)">
            <path d="M26.003,30.001L34.515,30.001L34.515,125C34.515,133.284 41.231,140 49.515,140C57.799,140 64.515,133.284 64.515,125L64.515,15.001C64.515,6.717 57.799,0.001 49.515,0.001L26.003,0.001C17.719,0.001 11.003,6.717 11.003,15.001C11.003,23.285 17.719,30.001 26.003,30.001Z" style="fill-rule:nonzero;"/>
        </g>
        <g transform="matrix(0.105295,0,0,0.105295,1.66611e-05,3.10598)">
            <path d="M74.083,295.751C65.236,295.862 55.921,295.943 47.605,295.979C53.264,288.33 60.611,278.193 69.983,264.803C77.083,254.661 81.723,245.027 83.777,236.169C83.891,235.678 83.98,235.182 84.044,234.682L84.577,230.509C84.658,229.879 84.698,229.244 84.698,228.608C84.698,205.114 65.585,186.001 42.092,186.001C21.778,186.001 4.195,200.454 0.284,220.366C-1.313,228.495 3.983,236.379 12.112,237.975C20.242,239.57 28.125,234.276 29.721,226.147C30.875,220.268 36.078,216.001 42.091,216.001C48.783,216.001 54.274,221.243 54.674,227.836L54.393,230.039C53.461,233.616 51.133,239.416 45.405,247.602C28.35,271.97 18.175,285.292 12.709,292.45C5.803,301.492 1.999,306.473 4.503,314.616C5.995,319.465 9.656,323.181 14.551,324.812C16.581,325.489 18.208,326.031 39.151,326.031C47.465,326.031 58.824,325.946 74.461,325.749C82.744,325.645 89.374,318.845 89.271,310.561C89.165,302.278 82.354,295.659 74.083,295.751Z" style="fill-rule:nonzero;"/>
        </g>
        <g transform="matrix(0.105295,0,0,0.105295,0.0240307,2.35554)">
            <path d="M44.637,371.999C24.373,371.999 6.835,386.416 2.935,406.279C1.338,414.408 6.634,422.292 14.763,423.888C22.893,425.483 30.776,420.189 32.372,412.059C33.517,406.23 38.675,401.999 44.637,401.999C51.53,401.999 57.137,407.606 57.137,414.499C57.137,421.392 51.53,426.998 44.637,426.998C36.353,426.998 29.637,433.714 29.637,441.998C29.637,450.282 36.353,456.998 44.637,456.998C51.53,456.998 57.137,462.605 57.137,469.498C57.137,476.391 51.53,481.998 44.637,481.998C38.435,481.998 33.113,477.382 32.259,471.262C32.178,470.682 32.137,470.089 32.137,469.498C32.137,461.214 25.421,454.498 17.137,454.498C8.853,454.498 2.137,461.214 2.137,469.498C2.137,471.47 2.275,473.457 2.546,475.407C5.457,496.267 23.553,511.998 44.637,511.998C68.072,511.998 87.136,492.933 87.136,469.498C87.136,459.017 83.315,449.416 77.003,441.998C83.316,434.58 87.136,424.98 87.136,414.499C87.136,391.065 68.071,371.999 44.637,371.999Z" style="fill-rule:nonzero;"/>
        </g>
    </g>
</svg>
