<?xml version="1.0" encoding="UTF-8" standalone="no"?>
<!DOCTYPE svg PUBLIC "-//W3C//DTD SVG 1.1//EN" "http://www.w3.org/Graphics/SVG/1.1/DTD/svg11.dtd">
<svg width="100%" height="100%" viewBox="0 0 16 16" version="1.1" xmlns="http://www.w3.org/2000/svg" xmlns:xlink="http://www.w3.org/1999/xlink" xml:space="preserve" xmlns:serif="http://www.serif.com/" style="fill-rule:evenodd;clip-rule:evenodd;stroke-linejoin:round;stroke-miterlimit:2;">
    <path d="M15.805,14.862L11.255,10.312C12.136,9.223 12.666,7.84 12.666,6.333C12.666,2.841 9.825,0 6.333,0C2.841,0 0,2.841 0,6.333C0,9.825 2.841,12.667 6.333,12.667C7.84,12.667 9.223,12.136 10.312,11.255L14.862,15.805C14.992,15.935 15.163,16 15.333,16C15.504,16 15.675,15.935 15.805,15.805C16.065,15.544 16.065,15.123 15.805,14.862ZM6.333,11.333C3.576,11.333 1.333,9.091 1.333,6.333C1.333,3.576 3.576,1.333 6.333,1.333C9.091,1.333 11.333,3.576 11.333,6.333C11.333,9.091 9.091,11.333 6.333,11.333Z" style="fill:white;fill-rule:nonzero;"/>
</svg>
