<svg width="100%" height="100%" viewBox="0 0 513 512" version="1.1" xmlns="http://www.w3.org/2000/svg" xmlns:xlink="http://www.w3.org/1999/xlink" xml:space="preserve" xmlns:serif="http://www.serif.com/" style="fill-rule:evenodd;clip-rule:evenodd;stroke-linejoin:round;stroke-miterlimit:2;">
    <g transform="matrix(1,0,0,1,0.000375023,-0.00199996)">
        <path d="M237.056,498.455L207.178,410.316C190.677,361.638 152.266,321.967 101.684,304.822L13.545,274.945C-4.517,268.822 -4.514,243.179 13.545,237.057L101.684,207.179C150.362,190.679 190.032,152.266 207.178,101.685L237.056,13.547C243.179,-4.515 268.822,-4.511 274.944,13.547L304.822,101.685C321.323,150.363 359.734,190.033 410.316,207.179L498.455,237.057C516.517,243.18 516.513,268.823 498.455,274.945L410.316,304.822C361.64,321.322 321.968,359.735 304.822,410.316L274.944,498.455C268.821,516.518 243.177,516.512 237.056,498.455ZM82.273,256L114.528,266.933C174.762,287.351 223.85,334.882 245.067,397.472L256,429.727L266.934,397.472C287.352,337.238 334.883,288.15 397.473,266.933L429.727,256L397.472,245.066C337.238,224.648 288.15,177.117 266.933,114.527L256,82.272L245.066,114.527C224.648,174.761 177.117,223.849 114.528,245.066L82.273,256ZM138.401,138.4C146.213,130.588 146.213,117.922 138.401,110.111L98.395,70.106C90.584,62.296 77.918,62.296 70.107,70.106C62.295,77.918 62.295,90.583 70.107,98.395L110.113,138.401C117.924,146.21 130.587,146.212 138.401,138.4ZM401.887,138.4L441.893,98.394C449.705,90.582 449.705,77.917 441.893,70.105C434.082,62.295 421.416,62.295 413.605,70.105L373.599,110.111C365.787,117.923 365.787,130.588 373.599,138.4C381.411,146.21 394.074,146.212 401.887,138.4ZM98.395,441.893L138.401,401.887C146.213,394.075 146.213,381.409 138.401,373.598C130.59,365.788 117.924,365.788 110.113,373.598L70.107,413.604C62.295,421.416 62.295,434.082 70.107,441.893C77.919,449.703 90.582,449.705 98.395,441.893ZM441.893,441.893C449.705,434.081 449.705,421.415 441.893,413.604L401.887,373.598C394.076,365.788 381.41,365.788 373.599,373.598C365.787,381.41 365.787,394.076 373.599,401.887L413.605,441.893C421.416,449.703 434.079,449.705 441.893,441.893Z" style="fill-rule:nonzero;"/>
    </g>
</svg>
