<?xml version="1.0" encoding="UTF-8" standalone="no"?>
<!DOCTYPE svg PUBLIC "-//W3C//DTD SVG 1.1//EN" "http://www.w3.org/Graphics/SVG/1.1/DTD/svg11.dtd">
<svg width="100%" height="100%" viewBox="0 0 479 479" version="1.1" xmlns="http://www.w3.org/2000/svg" xmlns:xlink="http://www.w3.org/1999/xlink" xml:space="preserve" xmlns:serif="http://www.serif.com/" style="fill-rule:evenodd;clip-rule:evenodd;stroke-linejoin:round;stroke-miterlimit:2;">
    <path d="M411.703,73.561C366.586,26.468 304.161,-0.109 238.943,0.011C107.145,-0.155 0.166,106.554 0,238.353C-0.082,303.523 26.492,365.891 73.55,410.976C73.687,411.112 73.738,411.317 73.874,411.437C75.256,412.768 76.758,413.895 78.158,415.175C81.998,418.588 85.838,422.121 89.883,425.415C92.05,427.122 94.303,428.828 96.522,430.398C100.345,433.248 104.168,436.098 108.161,438.727C110.875,440.434 113.674,442.14 116.455,443.847C120.141,446.066 123.811,448.301 127.617,450.332C130.843,452.039 134.136,453.506 137.413,455.059C140.997,456.766 144.53,458.472 148.199,460.008C151.868,461.544 155.555,462.739 159.275,464.07C162.995,465.401 166.204,466.63 169.771,467.722C173.799,468.934 177.929,469.872 182.025,470.879C185.438,471.715 188.749,472.671 192.265,473.354C196.975,474.293 201.754,474.89 206.533,475.539C209.486,475.949 212.37,476.529 215.356,476.819C223.173,477.587 231.057,478.014 239.01,478.014C246.963,478.014 254.848,477.587 262.664,476.819C265.651,476.529 268.535,475.949 271.487,475.539C276.266,474.89 281.044,474.293 285.755,473.354C289.168,472.671 292.582,471.647 295.995,470.879C300.091,469.872 304.221,468.933 308.249,467.722C311.816,466.63 315.263,465.299 318.745,464.07C322.227,462.841 326.186,461.51 329.821,460.008C333.456,458.506 337.023,456.748 340.607,455.059C343.884,453.506 347.178,452.038 350.403,450.332C354.209,448.301 357.878,446.065 361.565,443.847C364.347,442.14 367.146,440.587 369.859,438.727C373.853,436.099 377.676,433.249 381.498,430.398C383.717,428.691 385.969,427.155 388.137,425.415C392.182,422.172 396.022,418.725 399.862,415.175C401.261,413.895 402.763,412.769 404.146,411.437C404.282,411.318 404.334,411.113 404.47,410.976C499.644,319.798 502.881,168.732 411.703,73.561ZM373.344,393.107C370.238,395.838 367.029,398.432 363.787,400.941C361.876,402.409 359.964,403.859 358.001,405.259C354.912,407.495 351.772,409.611 348.58,411.642C346.259,413.127 343.887,414.56 341.497,415.96C338.493,417.667 335.438,419.373 332.349,421.08C329.618,422.479 326.836,423.794 324.038,425.091C321.24,426.388 318.15,427.77 315.129,428.982C312.108,430.194 308.9,431.337 305.742,432.395C302.858,433.385 299.974,434.409 297.055,435.279C293.642,436.303 290.075,437.139 286.542,437.993C283.777,438.641 281.047,439.375 278.248,439.922C274.203,440.707 270.073,441.253 265.926,441.816C263.571,442.123 261.233,442.55 258.86,442.789C252.306,443.42 245.667,443.796 238.96,443.796C232.253,443.796 225.614,443.421 219.06,442.789C216.688,442.55 214.35,442.123 211.994,441.816C207.847,441.253 203.717,440.707 199.672,439.922C196.873,439.376 194.142,438.642 191.378,437.993C187.845,437.14 184.329,436.286 180.865,435.279C177.947,434.409 175.062,433.385 172.178,432.395C169.021,431.303 165.863,430.193 162.791,428.982C159.719,427.77 156.818,426.439 153.882,425.091C150.946,423.743 148.301,422.48 145.571,421.08C142.482,419.476 139.427,417.786 136.423,415.96C134.034,414.561 131.661,413.127 129.34,411.642C126.149,409.611 123.008,407.495 119.919,405.259C117.956,403.86 116.045,402.409 114.133,400.941C110.89,398.432 107.682,395.821 104.576,393.107C103.825,392.544 103.142,391.827 102.409,391.178C103.172,333.121 140.469,281.857 195.474,263.263C222.977,276.346 254.909,276.346 282.412,263.263C337.416,281.857 374.713,333.12 375.477,391.178C374.76,391.827 374.077,392.476 373.344,393.107ZM179.43,136.849C197.909,103.985 239.53,92.324 272.394,110.803C305.258,129.282 316.919,170.903 298.44,203.767C292.309,214.671 283.299,223.681 272.394,229.813C272.309,229.813 272.206,229.813 272.104,229.915C267.578,232.434 262.795,234.46 257.836,235.957C256.949,236.213 256.129,236.554 255.191,236.776C253.484,237.22 251.692,237.527 249.934,237.834C246.624,238.413 243.275,238.749 239.916,238.841L237.97,238.841C234.611,238.749 231.262,238.413 227.952,237.834C226.245,237.527 224.436,237.22 222.696,236.776C221.791,236.554 220.989,236.213 220.051,235.957C215.092,234.46 210.309,232.435 205.783,229.915L205.476,229.813C172.612,211.334 160.951,169.713 179.43,136.849ZM405.753,357.336C394.801,306.253 361.163,262.946 314.378,239.696C352.623,198.035 349.853,133.258 308.192,95.013C266.531,56.768 201.754,59.538 163.509,101.199C127.555,140.365 127.555,200.531 163.509,239.696C116.724,262.947 83.086,306.253 72.134,357.336C6.69,265.153 28.366,137.371 120.549,71.927C212.732,6.483 340.514,28.159 405.958,120.342C430.559,154.995 443.765,196.446 443.744,238.944C443.744,281.405 430.46,322.802 405.753,357.336Z" style="fill:white;fill-rule:nonzero;"/>
</svg>
